<svg xmlns="http://www.w3.org/2000/svg" viewBox="817 91 64 71.918">
  <defs>
    <style>
      .cls-1 {
        fill: #333;
      }

      .cls-2 {
        fill: #e8f3fd;
      }

      .cls-3 {
        fill: #90c3f5;
      }
    </style>
  </defs>
  <g id="iconmegusta" transform="translate(793.647 91)">
    <path id="Path_93" data-name="Path 93" class="cls-1" d="M81.187,35.692a7.519,7.519,0,0,1-.381,14.852,25.846,25.846,0,0,1-25.45,21.373h0a25.514,25.514,0,0,1-18.29-7.684,26.051,26.051,0,0,1-7.122-13.684,7.519,7.519,0,0,1-.424-14.857v-13.5a4.611,4.611,0,0,0-.882.671,2.356,2.356,0,0,1-3.87-2.446l.661-1.955a10.271,10.271,0,0,1,1.553-2.926c.751-7.042,5.62-12,14.111-14.34a33.782,33.782,0,0,1,19.916.659l8.515,2.89A8.757,8.757,0,0,1,81.187,13Zm3.453,7.4a4.816,4.816,0,0,0-3.453-4.613v7.608c0,.546-.019,1.092-.053,1.633A4.815,4.815,0,0,0,84.641,43.088Zm-6.166,3v-12.6A11.524,11.524,0,0,1,68.322,22.059v-3.68a26.533,26.533,0,0,1-14.311,7.788A26.539,26.539,0,0,1,34.448,22.3a4.7,4.7,0,0,0-2.217-.753V45.826a23.366,23.366,0,0,0,6.764,16.5,22.822,22.822,0,0,0,16.359,6.878h0a23.123,23.123,0,0,0,23.12-23.121Zm0-15.332V13a6.047,6.047,0,0,0-7.554-5.857l.114,14.911A8.812,8.812,0,0,0,78.475,30.752ZM68.316,14.168,68.209,7.16,60.136,4.42a31.079,31.079,0,0,0-18.322-.614c-6,1.656-9.819,4.616-11.4,8.819.234-.122.473-.239.717-.344a10.319,10.319,0,0,1,8.41.131,7.64,7.64,0,0,0,8.9-1.853l.337-.38a1.356,1.356,0,1,1,2.031,1.8l-.336.381A10.373,10.373,0,0,1,38.4,14.871,7.6,7.6,0,0,0,28,19.326l-.264.78a7.349,7.349,0,0,1,8.2-.075A23.847,23.847,0,0,0,53.5,23.5,23.844,23.844,0,0,0,68.316,14.168ZM29.586,47.72c-.044-.627-.068-1.258-.068-1.894V38.476a4.807,4.807,0,0,0,.068,9.244Z" transform="translate(0 0)"/>
    <path id="Path_94" data-name="Path 94" class="cls-2" d="M364.255,226.966a4.807,4.807,0,0,1-.053,9.241c.034-.541.053-1.087.053-1.632Z" transform="translate(-283.068 -188.49)"/>
    <path id="Path_95" data-name="Path 95" class="cls-2" d="M121.967,123.524v12.6a23.123,23.123,0,0,1-23.12,23.121h0a22.823,22.823,0,0,1-16.359-6.878,23.366,23.366,0,0,1-6.764-16.5V111.586a4.7,4.7,0,0,1,2.217.753,26.675,26.675,0,0,0,33.874-3.923v3.68A11.524,11.524,0,0,0,121.967,123.524Zm-5.41,8.866a1.354,1.354,0,0,0,0-1.917,5.2,5.2,0,0,0-7.34,0,1.356,1.356,0,1,0,1.917,1.917,2.482,2.482,0,0,1,3.506,0,1.353,1.353,0,0,0,1.917,0Zm-1.76,13.379a1.356,1.356,0,1,0-1.917-1.917,19.871,19.871,0,0,1-28.07,0,1.356,1.356,0,0,0-1.919,1.917,22.585,22.585,0,0,0,31.906,0ZM88.475,132.39a1.357,1.357,0,0,0,0-1.917,5.192,5.192,0,0,0-7.342,0,1.356,1.356,0,1,0,1.917,1.917,2.48,2.48,0,0,1,3.506,0,1.355,1.355,0,0,0,1.919,0Z" transform="translate(-43.492 -90.037)"/>
    <path id="Path_96" data-name="Path 96" class="cls-3" d="M311.507,47.041V64.789a8.812,8.812,0,0,1-7.44-8.693l-.114-14.911a6.047,6.047,0,0,1,7.554,5.857Z" transform="translate(-233.032 -34.037)"/>
    <path id="Path_97" data-name="Path 97" class="cls-1" d="M278.694,231.089a1.356,1.356,0,1,1-1.917,1.917,2.482,2.482,0,0,0-3.506,0,1.356,1.356,0,1,1-1.917-1.917A5.2,5.2,0,0,1,278.694,231.089Z" transform="translate(-205.628 -190.654)"/>
    <path id="Path_98" data-name="Path 98" class="cls-1" d="M147.976,315.5a1.357,1.357,0,0,1,0,1.917,22.586,22.586,0,0,1-31.906,0,1.356,1.356,0,1,1,1.919-1.917,19.871,19.871,0,0,0,28.07,0A1.357,1.357,0,0,1,147.976,315.5Z" transform="translate(-76.67 -261.688)"/>
    <path id="Path_99" data-name="Path 99" class="cls-3" d="M89.668,20.448l.107,7.008A23.957,23.957,0,0,1,57.389,33.32a7.349,7.349,0,0,0-8.2.075l.264-.78a7.6,7.6,0,0,1,10.4-4.455,10.373,10.373,0,0,0,12.073-2.514l.336-.381a1.356,1.356,0,1,0-2.031-1.8l-.337.38a7.639,7.639,0,0,1-8.9,1.853,10.319,10.319,0,0,0-8.41-.131c-.244.105-.483.222-.717.344,1.577-4.2,5.393-7.162,11.4-8.819a31.08,31.08,0,0,1,18.322.614Z" transform="translate(-21.46 -13.288)"/>
    <path id="Path_100" data-name="Path 100" class="cls-1" d="M113.032,231.077a1.356,1.356,0,1,1-1.919,1.917,2.48,2.48,0,0,0-3.506,0,1.356,1.356,0,0,1-1.917-1.917,5.192,5.192,0,0,1,7.342,0Z" transform="translate(-68.049 -190.641)"/>
    <path id="Path_101" data-name="Path 101" class="cls-2" d="M42.806,234.317c0,.636.024,1.266.068,1.894a4.807,4.807,0,0,1-.068-9.244Z" transform="translate(-13.288 -188.49)"/>
  </g>
</svg>
