<svg xmlns="http://www.w3.org/2000/svg" viewBox="1211 91 64 71.918">
  <defs>
    <style>
      .cls-1 {
        fill: #333;
      }

      .cls-2 {
        fill: #e8f3fd;
      }

      .cls-3 {
        fill: #90c3f5;
      }
    </style>
  </defs>
  <g id="iconnomegusta" transform="translate(1187.647 91)">
    <path id="Path_93" data-name="Path 93" class="cls-1" d="M81.187,35.692a7.519,7.519,0,0,1-.381,14.852,25.846,25.846,0,0,1-25.45,21.373h0a25.514,25.514,0,0,1-18.29-7.684,26.051,26.051,0,0,1-7.122-13.684,7.519,7.519,0,0,1-.424-14.857v-13.5a4.611,4.611,0,0,0-.882.671,2.356,2.356,0,0,1-3.87-2.446l.661-1.955a10.271,10.271,0,0,1,1.553-2.926c.751-7.042,5.62-12,14.111-14.34a33.782,33.782,0,0,1,19.916.659l8.515,2.89A8.757,8.757,0,0,1,81.187,13Zm3.453,7.4a4.816,4.816,0,0,0-3.453-4.613v7.608c0,.546-.019,1.092-.053,1.633A4.815,4.815,0,0,0,84.641,43.088Zm-6.166,3v-12.6A11.524,11.524,0,0,1,68.322,22.059v-3.68a26.533,26.533,0,0,1-14.311,7.788A26.539,26.539,0,0,1,34.448,22.3a4.7,4.7,0,0,0-2.217-.753V45.826a23.366,23.366,0,0,0,6.764,16.5,22.822,22.822,0,0,0,16.359,6.878h0a23.123,23.123,0,0,0,23.12-23.121Zm0-15.332V13a6.047,6.047,0,0,0-7.554-5.857l.114,14.911A8.812,8.812,0,0,0,78.475,30.752ZM68.316,14.168,68.209,7.16,60.136,4.42a31.079,31.079,0,0,0-18.322-.614c-6,1.656-9.819,4.616-11.4,8.819.234-.122.473-.239.717-.344a10.319,10.319,0,0,1,8.41.131,7.64,7.64,0,0,0,8.9-1.853l.337-.38a1.356,1.356,0,1,1,2.031,1.8l-.336.381A10.373,10.373,0,0,1,38.4,14.871,7.6,7.6,0,0,0,28,19.326l-.264.78a7.349,7.349,0,0,1,8.2-.075A23.847,23.847,0,0,0,53.5,23.5,23.844,23.844,0,0,0,68.316,14.168ZM29.586,47.72c-.044-.627-.068-1.258-.068-1.894V38.476a4.807,4.807,0,0,0,.068,9.244Z" transform="translate(0 0)"/>
    <path id="Path_94" data-name="Path 94" class="cls-2" d="M364.255,226.966a4.807,4.807,0,0,1-.053,9.241c.034-.541.053-1.087.053-1.632Z" transform="translate(-283.068 -188.49)"/>
    <path id="Path_95" data-name="Path 95" class="cls-2" d="M121.967,123.524v12.6a23.123,23.123,0,0,1-23.12,23.121h0a22.822,22.822,0,0,1-16.359-6.878,23.366,23.366,0,0,1-6.764-16.5V111.586a4.7,4.7,0,0,1,2.217.753,26.675,26.675,0,0,0,33.874-3.923v3.68A11.524,11.524,0,0,0,121.967,123.524Zm-5.41,8.866a1.354,1.354,0,0,0,0-1.917,5.2,5.2,0,0,0-7.34,0,1.356,1.356,0,1,0,1.917,1.917,2.482,2.482,0,0,1,3.506,0,1.353,1.353,0,0,0,1.917,0Zm-1.76,13.379a1.356,1.356,0,0,0-1.917-1.917,19.871,19.871,0,0,1-28.07,0,1.356,1.356,0,0,0-1.919,1.917,22.585,22.585,0,0,0,31.906,0ZM88.475,132.39a1.357,1.357,0,0,0,0-1.917,5.192,5.192,0,0,0-7.342,0,1.356,1.356,0,1,0,1.917,1.917,2.48,2.48,0,0,1,3.506,0,1.355,1.355,0,0,0,1.919,0Z" transform="translate(-43.492 -90.037)"/>
    <path id="Path_96" data-name="Path 96" class="cls-3" d="M311.507,47.041V64.789a8.812,8.812,0,0,1-7.44-8.693l-.114-14.911a6.047,6.047,0,0,1,7.554,5.857Z" transform="translate(-233.032 -34.037)"/>
    <path id="Path_99" data-name="Path 99" class="cls-3" d="M89.668,20.448l.107,7.008A23.957,23.957,0,0,1,57.389,33.32a7.349,7.349,0,0,0-8.2.075l.264-.78a7.6,7.6,0,0,1,10.4-4.455,10.373,10.373,0,0,0,12.073-2.514l.336-.381a1.356,1.356,0,1,0-2.031-1.8l-.337.38a7.639,7.639,0,0,1-8.9,1.853,10.319,10.319,0,0,0-8.41-.131c-.244.105-.483.222-.717.344,1.577-4.2,5.393-7.162,11.4-8.819a31.08,31.08,0,0,1,18.322.614Z" transform="translate(-21.46 -13.288)"/>
    <path id="Path_101" data-name="Path 101" class="cls-2" d="M42.806,234.317c0,.636.024,1.266.068,1.894a4.807,4.807,0,0,1-.068-9.244Z" transform="translate(-13.288 -188.49)"/>
    <rect id="Rectangle_4" data-name="Rectangle 4" class="cls-2" width="37" height="20.5" transform="translate(37.353 39)"/>
    <rect id="Rectangle_5" data-name="Rectangle 5" class="cls-2" width="27" height="5.5" transform="translate(42.353 58)"/>
    <path id="Path_110" data-name="Path 110" class="cls-1" d="M180.392,304.585a1.091,1.091,0,0,1-1.542,1.542,5.339,5.339,0,0,0-7.542,0,1.09,1.09,0,0,1-1.541-1.542A7.522,7.522,0,0,1,180.392,304.585Z" transform="translate(-119.672 -248.017)"/>
    <path id="Path_111" data-name="Path 111" class="cls-1" d="M123.159,240.16a1.907,1.907,0,1,1-3.741-.525,1.793,1.793,0,0,1,2.421.1,1.088,1.088,0,0,0,1.3.178A1.779,1.779,0,0,1,123.159,240.16Z" transform="translate(-76.396 -198.451)"/>
    <path id="Path_112" data-name="Path 112" class="cls-1" d="M278.039,240.16a1.907,1.907,0,0,1-3.815,0,1.788,1.788,0,0,1,.016-.243,1.089,1.089,0,0,0,1.3-.178,1.793,1.793,0,0,1,2.421-.1A1.9,1.9,0,0,1,278.039,240.16Z" transform="translate(-210.174 -198.451)"/>
    <path id="Path_113" data-name="Path 113" class="cls-1" d="M111.332,225.926a1.019,1.019,0,0,1-.237.179,1.088,1.088,0,0,1-1.3-.179,1.793,1.793,0,0,0-2.421-.1c-.04.033-.076.067-.113.1a1.09,1.09,0,1,1-1.541-1.542,3.977,3.977,0,0,1,5.616,0A1.09,1.09,0,0,1,111.332,225.926Z" transform="translate(-64.348 -184.637)"/>
    <path id="Path_114" data-name="Path 114" class="cls-1" d="M276.192,225.926a1.09,1.09,0,0,1-1.541,0c-.037-.037-.074-.071-.113-.1a1.793,1.793,0,0,0-2.421.1,1.089,1.089,0,0,1-1.3.179,1.022,1.022,0,0,1-.237-.179,1.09,1.09,0,0,1,0-1.542,3.977,3.977,0,0,1,5.616,0A1.09,1.09,0,0,1,276.192,225.926Z" transform="translate(-206.747 -184.637)"/>
  </g>
</svg>
