<svg xmlns="http://www.w3.org/2000/svg" viewBox="945 91 64 71.918">
  <defs>
    <style>
      .cls-1 {
        fill: #333;
      }

      .cls-2 {
        fill: #e8f3fd;
      }

      .cls-3 {
        fill: #fff;
      }

      .cls-4 {
        fill: #90c3f5;
      }

      .cls-5 {
        fill: #ce0649;
      }
    </style>
  </defs>
  <g id="Group_15369" data-name="Group 15369" transform="translate(136 -236)">
    <g id="iconmeencanta" transform="translate(809 327)">
      <g id="_009-smile" data-name="009-smile" transform="translate(0 0)">
        <path id="Path_93" data-name="Path 93" class="cls-1" d="M81.187,35.692a7.519,7.519,0,0,1-.381,14.852,25.846,25.846,0,0,1-25.45,21.373h0a25.514,25.514,0,0,1-18.29-7.684,26.051,26.051,0,0,1-7.122-13.684,7.519,7.519,0,0,1-.424-14.857v-13.5a4.611,4.611,0,0,0-.882.671,2.356,2.356,0,0,1-3.87-2.446l.661-1.955a10.27,10.27,0,0,1,1.553-2.926c.751-7.042,5.62-12,14.111-14.34a33.782,33.782,0,0,1,19.916.659l8.515,2.89A8.757,8.757,0,0,1,81.187,13Zm3.453,7.4a4.816,4.816,0,0,0-3.453-4.613v7.608c0,.546-.019,1.092-.053,1.633A4.815,4.815,0,0,0,84.641,43.088Zm-6.166,3v-12.6A11.524,11.524,0,0,1,68.322,22.059v-3.68a26.533,26.533,0,0,1-14.311,7.788A26.539,26.539,0,0,1,34.448,22.3a4.7,4.7,0,0,0-2.217-.753V45.826a23.366,23.366,0,0,0,6.764,16.5,22.822,22.822,0,0,0,16.359,6.878h0a23.123,23.123,0,0,0,23.12-23.121Zm0-15.332V13a6.047,6.047,0,0,0-7.554-5.857l.114,14.911A8.812,8.812,0,0,0,78.475,30.752ZM68.316,14.168,68.209,7.16,60.136,4.42a31.079,31.079,0,0,0-18.322-.614c-6,1.656-9.819,4.616-11.4,8.819.234-.122.473-.239.717-.344a10.319,10.319,0,0,1,8.41.131,7.64,7.64,0,0,0,8.9-1.853l.337-.38a1.356,1.356,0,1,1,2.031,1.8l-.336.381A10.373,10.373,0,0,1,38.4,14.871,7.6,7.6,0,0,0,28,19.326l-.264.78a7.349,7.349,0,0,1,8.2-.075A23.847,23.847,0,0,0,53.5,23.5,23.844,23.844,0,0,0,68.316,14.168ZM29.586,47.72c-.044-.627-.068-1.258-.068-1.894V38.476a4.807,4.807,0,0,0,.068,9.244Z" transform="translate(-23.353 0)"/>
        <path id="Path_94" data-name="Path 94" class="cls-2" d="M364.255,226.966a4.807,4.807,0,0,1-.052,9.241c.034-.541.052-1.087.052-1.632Z" transform="translate(-306.421 -188.49)"/>
        <path id="Path_95" data-name="Path 95" class="cls-2" d="M121.967,123.524v12.6a23.122,23.122,0,0,1-23.12,23.121h0a22.822,22.822,0,0,1-16.359-6.878,23.366,23.366,0,0,1-6.764-16.5V111.586a4.7,4.7,0,0,1,2.217.753,26.675,26.675,0,0,0,33.874-3.923v3.68A11.524,11.524,0,0,0,121.967,123.524Zm-5.41,6.949c-2.024-2.024-7.871,1.388-7.34,1.917s4.457-.966,5.423,0C114.9,132.656,117.088,131,116.558,130.473ZM88.474,132.39a1.357,1.357,0,0,0,0-1.917,5.192,5.192,0,0,0-7.342,0,1.356,1.356,0,0,0,1.917,1.917,2.48,2.48,0,0,1,3.506,0,1.355,1.355,0,0,0,1.919,0Z" transform="translate(-66.845 -90.037)"/>
        <path id="Path_105" data-name="Path 105" class="cls-3" d="M61.075,105.612l.8-2.924H79.531l.585,3.326-.768.329L61.075,106.2Z" transform="translate(-38.581 -49.579)"/>
        <path id="Path_96" data-name="Path 96" class="cls-4" d="M311.507,47.041V64.789a8.812,8.812,0,0,1-7.44-8.693l-.114-14.911a6.047,6.047,0,0,1,7.554,5.857Z" transform="translate(-256.385 -34.036)"/>
        <path id="Path_97" data-name="Path 97" class="cls-1" d="M278.694,231.089a1.356,1.356,0,1,1-1.917,1.917,2.482,2.482,0,0,0-3.506,0,1.356,1.356,0,1,1-1.917-1.917A5.2,5.2,0,0,1,278.694,231.089Z" transform="translate(-228.981 -190.653)"/>
        <path id="Path_99" data-name="Path 99" class="cls-4" d="M89.668,20.448l.107,7.008A23.957,23.957,0,0,1,57.389,33.32a7.349,7.349,0,0,0-8.2.075l.264-.78a7.6,7.6,0,0,1,10.4-4.455,10.373,10.373,0,0,0,12.073-2.514l.336-.381a1.356,1.356,0,1,0-2.031-1.8l-.337.38a7.639,7.639,0,0,1-8.9,1.853,10.319,10.319,0,0,0-8.41-.131c-.244.105-.483.222-.717.344,1.577-4.2,5.393-7.162,11.4-8.819a31.08,31.08,0,0,1,18.322.614Z" transform="translate(-44.813 -13.288)"/>
        <path id="Path_100" data-name="Path 100" class="cls-1" d="M113.032,231.077a1.356,1.356,0,1,1-1.919,1.917,2.48,2.48,0,0,0-3.506,0,1.356,1.356,0,0,1-1.917-1.917,5.192,5.192,0,0,1,7.342,0Z" transform="translate(-91.402 -190.641)"/>
        <path id="Path_101" data-name="Path 101" class="cls-2" d="M42.806,234.317c0,.636.024,1.266.068,1.894a4.807,4.807,0,0,1-.068-9.244Z" transform="translate(-36.641 -188.49)"/>
        <path id="Path_102" data-name="Path 102" class="cls-1" d="M143.29,289.449a3.633,3.633,0,0,1,1.024,2.752,7.3,7.3,0,0,1-3.35,5.9,13.945,13.945,0,0,1-15.343,0,7.3,7.3,0,0,1-3.349-5.9,3.637,3.637,0,0,1,1.023-2.752c1.38-1.312,3.745-1.193,6.737-1.043,1.045.052,2.126.107,3.26.107s2.214-.055,3.259-.107C139.547,288.255,141.91,288.136,143.29,289.449Zm-.96,3.178a4.077,4.077,0,0,0,.022-.426c0-.937-.312-1.233-.413-1.33-.77-.732-2.965-.623-5.288-.505-1.018.05-2.174.109-3.357.109s-2.339-.059-3.358-.109c-.85-.043-1.683-.085-2.435-.085a4.532,4.532,0,0,0-2.852.59c-.1.1-.413.393-.413,1.33a4.09,4.09,0,0,0,.022.426,4.613,4.613,0,0,0,.624,1.889c1.337,2.3,4.6,3.924,8.412,3.924s7.075-1.626,8.412-3.924A4.611,4.611,0,0,0,142.33,292.627Z" transform="translate(-101.293 -236.632)"/>
        <path id="Path_103" data-name="Path 103" class="cls-1" d="M156.525,319.925a4.612,4.612,0,0,1-.624,1.889c-.913-.542-2.857-.444-5.056-.334-1.018.05-2.172.109-3.356.109s-2.338-.059-3.357-.109c-2.2-.11-4.141-.209-5.055.334a4.613,4.613,0,0,1-.624-1.889c1.406-.624,3.414-.524,5.777-.4,1.045.053,2.124.107,3.259.107s2.214-.054,3.258-.107C153.11,319.4,155.119,319.3,156.525,319.925Z" transform="translate(-115.488 -263.929)"/>
        <path id="Path_104" data-name="Path 104" class="cls-5" d="M155.311,335.518c2.2-.111,4.143-.209,5.056.334-1.337,2.3-4.6,3.924-8.412,3.924s-7.075-1.626-8.412-3.924c.914-.542,2.857-.444,5.055-.334,1.019.05,2.174.109,3.357.109S154.293,335.568,155.311,335.518Z" transform="translate(-119.954 -277.967)"/>
      </g>
    </g>
    <g id="Group_15368" data-name="Group 15368" transform="translate(820.002 361.159)">
      <g id="Group_15365" data-name="Group 15365" transform="translate(0.989 0.992)">
        <path id="Path_5424" data-name="Path 5424" class="cls-5" d="M295.456,127.78h0a4.141,4.141,0,0,0-5.856,0h0a4.141,4.141,0,0,0,0,5.856h0l5.856,5.856,5.856-5.856h0a4.141,4.141,0,0,0,0-5.856h0a4.141,4.141,0,0,0-5.856,0Z" transform="translate(-264.025 -126.567)"/>
        <path id="Path_5425" data-name="Path 5425" class="cls-5" d="M100.318,127.78h0a4.141,4.141,0,0,0-5.856,0h0a4.141,4.141,0,0,0,0,5.856h0l5.856,5.856,5.856-5.856h0a4.141,4.141,0,0,0,0-5.856h0a4.141,4.141,0,0,0-5.856,0Z" transform="translate(-93.25 -126.567)"/>
      </g>
      <path id="Union_4" data-name="Union 4" class="cls-1" d="M31.718,14.619,25.863,8.761a5.131,5.131,0,0,1,0-7.258A5.135,5.135,0,0,1,32.421.916a5.133,5.133,0,0,1,6.558,7.845l-5.858,5.858a.991.991,0,0,1-1.4,0ZM27.266,2.906a3.149,3.149,0,0,0,0,4.452l5.155,5.155,5.152-5.155a3.148,3.148,0,0,0-4.453-4.452.991.991,0,0,1-1.4,0,3.149,3.149,0,0,0-4.452,0ZM7.356,14.619,1.5,8.761A5.133,5.133,0,0,1,8.059.916a5.135,5.135,0,0,1,6.558.588,5.136,5.136,0,0,1,0,7.258L8.759,14.619a.991.991,0,0,1-1.4,0ZM2.9,2.906a3.153,3.153,0,0,0,0,4.452l5.155,5.155,5.152-5.155A3.148,3.148,0,0,0,8.759,2.906a.991.991,0,0,1-1.4,0,3.15,3.15,0,0,0-4.452,0Z" transform="translate(0)"/>
    </g>
  </g>
</svg>
