<svg xmlns="http://www.w3.org/2000/svg" viewBox="1075 93 60.814 68.337">
  <defs>
    <style>
      .cls-1 {
        fill: #e8f3fd;
      }

      .cls-2, .cls-4 {
        fill: #333;
      }

      .cls-3 {
        fill: #90c3f5;
      }

      .cls-4 {
        font-size: 19px;
        font-family: Lato-Black, Lato;
        font-weight: 800;
      }
    </style>
  </defs>
  <g id="icontengoduda" transform="translate(119 -7)">
    <g id="icontengoduda-2" data-name="icontengoduda" transform="translate(956 100)">
      <g id="Group_15367" data-name="Group 15367" transform="translate(0 0)">
        <g id="Group_15364" data-name="Group 15364" transform="translate(0 0)">
          <g id="_009-smile" data-name="009-smile">
            <rect id="Rectangle_1" data-name="Rectangle 1" class="cls-1" width="8.552" height="4.276" transform="translate(12.828 37.058)"/>
            <rect id="Rectangle_3" data-name="Rectangle 3" class="cls-1" width="9.502" height="4.751" transform="translate(39.434 36.583)"/>
            <rect id="Rectangle_2" data-name="Rectangle 2" class="cls-1" width="8.552" height="4.276" transform="translate(35.158 40.384)"/>
            <path id="Path_93" data-name="Path 93" class="cls-2" d="M78.308,33.915a7.145,7.145,0,0,1-.362,14.112A24.559,24.559,0,0,1,53.762,68.337h0a24.244,24.244,0,0,1-17.379-7.3,24.754,24.754,0,0,1-6.767-13,7.144,7.144,0,0,1-.4-14.117V21.083a4.382,4.382,0,0,0-.838.638A2.239,2.239,0,0,1,24.7,19.4l.628-1.857a9.759,9.759,0,0,1,1.476-2.78c.714-6.691,5.34-11.4,13.409-13.626a32.1,32.1,0,0,1,18.924.627l8.091,2.746a8.321,8.321,0,0,1,11.084,7.851Zm3.281,7.028a4.577,4.577,0,0,0-3.281-4.383V43.79c0,.519-.018,1.037-.05,1.551A4.576,4.576,0,0,0,81.589,40.943ZM75.731,43.79V31.819a10.95,10.95,0,0,1-9.647-10.859v-3.5a25.212,25.212,0,0,1-13.6,7.4A25.218,25.218,0,0,1,33.9,21.191a4.462,4.462,0,0,0-2.107-.715V43.545a22.2,22.2,0,0,0,6.427,15.68A21.686,21.686,0,0,0,53.761,65.76h0A21.971,21.971,0,0,0,75.731,43.79Zm0-14.568V12.357a5.746,5.746,0,0,0-7.178-5.565l.108,14.169A8.373,8.373,0,0,0,75.731,29.221ZM66.077,13.462l-.1-6.659L58.3,4.2a29.532,29.532,0,0,0-17.41-.583C35.191,5.191,31.565,8,30.067,12c.222-.116.449-.227.681-.327a9.806,9.806,0,0,1,7.991.124,7.259,7.259,0,0,0,8.454-1.761l.321-.361a1.288,1.288,0,1,1,1.93,1.707l-.319.362a9.856,9.856,0,0,1-11.472,2.389,7.218,7.218,0,0,0-9.886,4.233l-.251.741a6.983,6.983,0,0,1,7.788-.071,22.66,22.66,0,0,0,16.7,3.3A22.657,22.657,0,0,0,66.077,13.462Zm-36.8,31.882c-.042-.6-.064-1.2-.064-1.8V36.56a4.568,4.568,0,0,0,.064,8.784Z" transform="translate(-23.353 0)"/>
            <path id="Path_94" data-name="Path 94" class="cls-1" d="M364.253,226.966a4.568,4.568,0,0,1-.05,8.781c.032-.514.05-1.032.05-1.551Z" transform="translate(-309.298 -190.406)"/>
            <path id="Path_95" data-name="Path 95" class="cls-1" d="M119.665,122.772v11.97A21.971,21.971,0,0,1,97.7,156.712h0a21.686,21.686,0,0,1-15.545-6.535,22.2,22.2,0,0,1-6.427-15.68V111.428a4.462,4.462,0,0,1,2.107.715,25.347,25.347,0,0,0,32.188-3.727v3.5A10.95,10.95,0,0,0,119.665,122.772Zm-5.14,8.425a1.286,1.286,0,0,0,0-1.822,4.937,4.937,0,0,0-6.975,0,1.288,1.288,0,0,0,1.822,1.822,2.358,2.358,0,0,1,3.331,0,1.285,1.285,0,0,0,1.822,0Zm-1.672,12.713a1.288,1.288,0,0,0-1.822-1.822,18.882,18.882,0,0,1-26.672,0,1.289,1.289,0,0,0-1.823,1.822,21.461,21.461,0,0,0,30.317,0ZM87.84,131.2a1.289,1.289,0,0,0,0-1.822,4.933,4.933,0,0,0-6.976,0,1.288,1.288,0,0,0,1.822,1.822,2.357,2.357,0,0,1,3.331,0,1.287,1.287,0,0,0,1.823,0Z" transform="translate(-67.287 -90.952)"/>
            <path id="Path_96" data-name="Path 96" class="cls-3" d="M311.131,46.74V63.6a8.373,8.373,0,0,1-7.07-8.26l-.108-14.169a5.746,5.746,0,0,1,7.178,5.565Z" transform="translate(-258.753 -34.382)"/>
            <path id="Path_98" data-name="Path 98" class="cls-1" d="M146.367,315.483a1.289,1.289,0,0,1,0,1.822,21.461,21.461,0,0,1-30.317,0,1.289,1.289,0,1,1,1.823-1.822,18.882,18.882,0,0,0,26.672,0A1.289,1.289,0,0,1,146.367,315.483Z" transform="translate(-100.802 -264.348)"/>
            <path id="Path_99" data-name="Path 99" class="cls-3" d="M87.653,20.226l.1,6.659a22.764,22.764,0,0,1-30.773,5.572,6.983,6.983,0,0,0-7.788.071l.251-.741a7.218,7.218,0,0,1,9.886-4.233A9.857,9.857,0,0,0,70.8,25.165l.319-.362a1.288,1.288,0,1,0-1.93-1.707l-.321.361a7.259,7.259,0,0,1-8.454,1.761,9.806,9.806,0,0,0-7.991-.124c-.232.1-.459.211-.681.327,1.5-3.993,5.124-6.806,10.828-8.38a29.532,29.532,0,0,1,17.41.583Z" transform="translate(-45.031 -13.423)"/>
            <path id="Path_101" data-name="Path 101" class="cls-1" d="M42.634,233.951c0,.6.023,1.2.064,1.8a4.568,4.568,0,0,1-.064-8.784Z" transform="translate(-36.776 -190.406)"/>
            <path id="Path_106" data-name="Path 106" class="cls-2" d="M186.822,139.839a1.934,1.934,0,0,1-1.933-1.933v-1.933a1.933,1.933,0,1,1,3.867,0v1.933a1.934,1.934,0,0,1-1.933,1.933" transform="translate(-169.85 -101.385)"/>
            <path id="Path_107" data-name="Path 107" class="cls-2" d="M186.822,139.839a1.934,1.934,0,0,1-1.933-1.933v-1.933a1.933,1.933,0,1,1,3.867,0v1.933a1.934,1.934,0,0,1-1.933,1.933" transform="translate(-145.36 -98.725)"/>
            <path id="Path_108" data-name="Path 108" class="cls-2" d="M239.5,214.195h-3.867a.967.967,0,1,1,0-1.933H239.5a.967.967,0,0,1,0,1.933" transform="translate(-207.159 -169.924)"/>
          </g>
        </g>
        <text id="_" data-name="?" class="cls-4" transform="translate(30.309 19)"><tspan x="0" y="0">?</tspan></text>
      </g>
    </g>
    <path id="Path_5432" data-name="Path 5432" class="cls-2" d="M283.833,268.539h-3.25a3.25,3.25,0,0,1,0-6.5h3.25a3.25,3.25,0,1,1,0,6.5" transform="translate(714.086 -108.089)"/>
  </g>
</svg>
