<svg xmlns="http://www.w3.org/2000/svg" viewBox="-1571.68 -213.36 127.329 36.662">
  <defs>
    <style>
      .cls-1 {
        fill: #fff;
        fill-rule: evenodd;
      }
    </style>
  </defs>
  <g id="Logo-monochromatic" transform="translate(-1571.68 -213.36)">
    <path id="Combined-Shape" class="cls-1" d="M52.146,31.312a6.343,6.343,0,0,1-4.327-1.853l1.975-3.214a3.265,3.265,0,0,0,2.265,1.071,1.272,1.272,0,0,0,1.045-.594,2.093,2.093,0,0,0,.436-1.26q0-.666-6.04-15.868h4.646l3.8,9.7,3.8-9.7H64.4l-7.26,18.359a5.172,5.172,0,0,1-1.989,2.476,5.374,5.374,0,0,1-3.006.883ZM71.153,20.5a3.835,3.835,0,0,0,5.576,0,4.457,4.457,0,0,0,1.089-3.113,4.511,4.511,0,0,0-1.089-3.127,3.8,3.8,0,0,0-5.576,0,4.511,4.511,0,0,0-1.089,3.127A4.457,4.457,0,0,0,71.153,20.5Zm8.7,2.592a8.7,8.7,0,0,1-11.819,0,7.692,7.692,0,0,1-2.352-5.7,7.74,7.74,0,0,1,2.352-5.719,8.657,8.657,0,0,1,11.819,0A7.74,7.74,0,0,1,82.2,17.383a7.693,7.693,0,0,1-2.352,5.7ZM90,20.5a3.835,3.835,0,0,0,5.576,0,4.457,4.457,0,0,0,1.089-3.113,4.511,4.511,0,0,0-1.089-3.127,3.8,3.8,0,0,0-5.576,0,4.511,4.511,0,0,0-1.089,3.127A4.457,4.457,0,0,0,90,20.5Zm8.7,2.592a8.7,8.7,0,0,1-11.819,0,7.692,7.692,0,0,1-2.352-5.7,7.74,7.74,0,0,1,2.352-5.719,8.657,8.657,0,0,1,11.819,0,7.74,7.74,0,0,1,2.352,5.719,7.693,7.693,0,0,1-2.352,5.7Zm9.932,2.085h-4.356V9.594h4.356ZM103.9,5.8a2.556,2.556,0,1,1,5.111,0,2.556,2.556,0,1,1-5.111,0ZM21.5,18.535l3.323-3.325a2.24,2.24,0,1,0-3.167-3.169l-3.323,3.325-3.3-3.3a2.24,2.24,0,1,0-3.167,3.169l4.886,4.889a2.239,2.239,0,0,0,3.168,0L21.5,18.54Zm95.613-2.05v8.687h-4.356V9.594h4.356v1.737a6.106,6.106,0,0,1,4.443-2,5.509,5.509,0,0,1,4.138,1.737,6.405,6.405,0,0,1,1.67,4.633v9.469H123v-8.8q0-3.591-2.643-3.591a3.174,3.174,0,0,0-2.28.941A3.675,3.675,0,0,0,117.109,16.486ZM14.7,1.547a5.179,5.179,0,0,1,7.321,0L35.178,14.7a5.179,5.179,0,0,1,0,7.321L22.023,35.178a5.179,5.179,0,0,1-7.321,0L1.547,22.023a5.179,5.179,0,0,1,0-7.321ZM18.361,27.08a2.207,2.207,0,1,0-2.207-2.207A2.207,2.207,0,0,0,18.361,27.08Z" transform="translate(-0.032 -0.032)"/>
  </g>
</svg>
