<svg xmlns="http://www.w3.org/2000/svg" viewBox="-8465.68 -18227.359 36.661 36.662">
  <defs>
    <style>
      .cls-1 {
        fill: #fff;
        fill-rule: evenodd;
      }
    </style>
  </defs>
  <g id="Logo-monochromatic" transform="translate(-8465.68 -18227.359)">
    <path id="Combined-Shape" class="cls-1" d="M21.5,18.535l3.323-3.325a2.24,2.24,0,1,0-3.167-3.169l-3.323,3.325-3.3-3.3a2.24,2.24,0,1,0-3.167,3.169l4.886,4.889a2.239,2.239,0,0,0,3.168,0L21.5,18.54ZM14.7,1.547a5.179,5.179,0,0,1,7.321,0L35.178,14.7a5.179,5.179,0,0,1,0,7.321L22.023,35.178a5.179,5.179,0,0,1-7.321,0L1.547,22.023a5.179,5.179,0,0,1,0-7.321ZM18.361,27.08a2.207,2.207,0,1,0-2.207-2.207A2.207,2.207,0,0,0,18.361,27.08Z" transform="translate(-0.032 -0.032)"/>
  </g>
</svg>
